# xmcd
#
# Track frame offsets: 
#        150
#        17696
#        38346
#
# Disc length: 955 seconds
#
# Revision: 0
# Processed by: cddbd v1.5.2PL0 Copyright (c) Steve Scherf et al.
# Submitted via: ExactAudioCopy v0.99pb5
#
DISCID=1303b903
DTITLE=Jennifer Lopez - Ain't It Funny
DYEAR=2002
DGENRE=R&B
TTITLE0=Ain't It Funny (Murder Remix Feat. Ja Rule and Caddillac Tah)
TTITLE1=Play (Artiful Dodger Mix)
TTITLE2=Feelin' So Good (HQ2 Club Mix)
EXTD=
EXTT0=
EXTT1=
EXTT2=
PLAYORDER=
